<svg width="24" height="24" viewBox="0 0 24 24" fill="none" xmlns="http://www.w3.org/2000/svg">
<path d="M19.7482 9.94174L20.3694 9.87272L19.7482 9.94174ZM19.8959 11.2708L20.5171 11.2018L20.5171 11.2018L19.8959 11.2708ZM18.6981 14.6856L18.2561 14.2436L18.6981 14.6856ZM13.4722 19.9114L13.9141 20.3534L13.4722 19.9114ZM14.7291 6.10399L14.66 6.72517L14.66 6.72517L14.7291 6.10399ZM11.3143 7.30182L10.8724 6.85988L10.8724 6.85988L11.3143 7.30182ZM6.08844 12.5277L6.53038 12.9696L6.53038 12.9696L6.08844 12.5277ZM7.56519 19.9114L8.00714 19.4695L8.00714 19.4695L7.56519 19.9114ZM6.08844 18.4347L5.6465 18.8766L5.6465 18.8766L6.08844 18.4347ZM4 15.4812L4.625 15.4812L4.625 15.4812L4 15.4812ZM12.8095 6.0981L12.6026 5.50833L12.6026 5.50833L12.8095 6.0981ZM10.5187 21.9999L10.5187 21.3749L10.5187 21.3749L10.5187 21.9999ZM19.9018 13.1904L19.312 12.9835L19.312 12.9835L19.9018 13.1904ZM18.9648 7.03508L19.4067 6.59314L18.9648 7.03508ZM18.0805 5.91256C17.7449 5.83194 17.4075 6.03866 17.3268 6.37429C17.2462 6.70992 17.4529 7.04736 17.7886 7.12798L18.0805 5.91256ZM15.0492 6.76841C15.3923 6.80653 15.7013 6.55932 15.7394 6.21625C15.7775 5.87318 15.5303 5.56417 15.1873 5.52605L15.0492 6.76841ZM19.127 10.0108L19.2747 11.3398L20.5171 11.2018L20.3694 9.87272L19.127 10.0108ZM18.2561 14.2436L13.0303 19.4695L13.9141 20.3534L19.14 15.1275L18.2561 14.2436ZM10.8724 6.85988L5.6465 12.0857L6.53038 12.9696L11.7562 7.74377L10.8724 6.85988ZM8.00714 19.4695L6.53038 17.9927L5.6465 18.8766L7.12325 20.3534L8.00714 19.4695ZM5.6465 12.0857C4.96285 12.7694 4.40471 13.3257 4.02522 13.823C3.63473 14.3348 3.375 14.8571 3.375 15.4812L4.625 15.4812C4.625 15.2402 4.71334 14.9819 5.019 14.5813C5.33566 14.1662 5.82174 13.6783 6.53038 12.9696L5.6465 12.0857ZM6.53038 17.9927C5.82174 17.2841 5.33566 16.7961 5.019 16.3811C4.71334 15.9805 4.625 15.7221 4.625 15.4812L3.375 15.4812C3.375 16.1053 3.63473 16.6275 4.02522 17.1393C4.40471 17.6367 4.96285 18.193 5.6465 18.8766L6.53038 17.9927ZM14.7981 5.48281C13.8774 5.38051 13.2175 5.29265 12.6026 5.50833L13.0164 6.68787C13.2995 6.58855 13.62 6.60961 14.66 6.72517L14.7981 5.48281ZM11.7562 7.74377C12.4962 7.00382 12.7333 6.78719 13.0164 6.68787L12.6026 5.50833C11.9878 5.72401 11.5274 6.20486 10.8724 6.85988L11.7562 7.74377ZM13.0303 19.4695C12.3216 20.1781 11.8337 20.6642 11.4186 20.9809C11.018 21.2865 10.7596 21.3749 10.5187 21.3749L10.5187 22.6249C11.1428 22.6249 11.665 22.3651 12.1768 21.9747C12.6742 21.5952 13.2305 21.037 13.9141 20.3534L13.0303 19.4695ZM7.12325 20.3534C7.80691 21.037 8.36317 21.5952 8.86055 21.9747C9.37235 22.3651 9.89457 22.6249 10.5187 22.6249L10.5187 21.3749C10.2778 21.3749 10.0194 21.2865 9.61877 20.9809C9.20374 20.6642 8.71578 20.1781 8.00714 19.4695L7.12325 20.3534ZM19.2747 11.3398C19.3903 12.3799 19.4113 12.7003 19.312 12.9835L20.4915 13.3972C20.7072 12.7824 20.6194 12.1225 20.5171 11.2018L19.2747 11.3398ZM19.14 15.1275C19.795 14.4725 20.2759 14.0121 20.4915 13.3972L19.312 12.9835C19.2127 13.2666 18.9961 13.5037 18.2561 14.2436L19.14 15.1275ZM20.3694 9.87272C20.2826 9.09188 20.2124 8.45049 20.0928 7.94226C19.9692 7.41747 19.7785 6.96489 19.4067 6.59314L18.5229 7.47703C18.6691 7.6233 18.7816 7.82783 18.876 8.22876C18.9743 8.64625 19.0369 9.19918 19.127 10.0108L20.3694 9.87272ZM17.7886 7.12798C18.1779 7.22149 18.3786 7.33281 18.5229 7.47703L19.4067 6.59314C19.0405 6.2269 18.5958 6.03632 18.0805 5.91256L17.7886 7.12798ZM15.1873 5.52605L14.7981 5.48281L14.66 6.72517L15.0492 6.76841L15.1873 5.52605Z" fill="black"/>
<path d="M8 15.4999H13M10.4986 12.9999H10.5079M10.5009 17.9999H10.5103"  stroke-width="1.25" stroke-linecap="round" stroke-linejoin="round"/>
<path d="M7 3.69682C9.78054 6.78172 14.3661 0.123717 17.0794 2.53998C18.6407 3.93028 18.1471 7 16.1203 9"  stroke-width="1.25" stroke-linecap="round"/>
</svg>
